<?xml version="1.0" encoding="UTF-8" standalone="no"?>
<svg
   width="48"
   height="48"
   viewBox="0 0 48 48"
   version="1.1"
   id="svg1550"
   sodipodi:docname="Pin.svg"
   inkscape:version="1.2.1 (9c6d41e410, 2022-07-14, custom)"
   xml:space="preserve"
   xmlns:inkscape="http://www.inkscape.org/namespaces/inkscape"
   xmlns:sodipodi="http://sodipodi.sourceforge.net/DTD/sodipodi-0.dtd"
   xmlns:xlink="http://www.w3.org/1999/xlink"
   xmlns="http://www.w3.org/2000/svg"
   xmlns:svg="http://www.w3.org/2000/svg"><defs
     id="defs1554"><linearGradient
       inkscape:collect="always"
       id="linearGradient974"><stop
         style="stop-color:#ff0000;stop-opacity:1;"
         offset="0"
         id="stop970" /><stop
         style="stop-color:#ff0000;stop-opacity:1;"
         offset="0.69190413"
         id="stop978" /><stop
         style="stop-color:#b1b1b1;stop-opacity:1;"
         offset="0.69190413"
         id="stop980" /><stop
         style="stop-color:#909090;stop-opacity:1;"
         offset="1"
         id="stop972" /></linearGradient><linearGradient
       inkscape:collect="always"
       xlink:href="#linearGradient974"
       id="linearGradient976"
       x1="48"
       y1="0"
       x2="0"
       y2="48"
       gradientUnits="userSpaceOnUse"
       gradientTransform="matrix(0.95893601,0,0,0.9589152,0.89522342,1.1176094)" /></defs><sodipodi:namedview
     id="namedview1552"
     pagecolor="#ffffff"
     bordercolor="#111111"
     borderopacity="1"
     inkscape:showpageshadow="0"
     inkscape:pageopacity="0"
     inkscape:pagecheckerboard="1"
     inkscape:deskcolor="#d1d1d1"
     showgrid="true"
     inkscape:zoom="11.609375"
     inkscape:cx="23.386272"
     inkscape:cy="25.195155"
     inkscape:window-width="1920"
     inkscape:window-height="1006"
     inkscape:window-x="0"
     inkscape:window-y="0"
     inkscape:window-maximized="1"
     inkscape:current-layer="svg1550"
     inkscape:document-units="px"><inkscape:grid
       type="xygrid"
       id="grid1673" /></sodipodi:namedview><path
     d="m 30.484961,5.9098477 c -0.124817,0.3120534 -0.124817,0.3744642 -0.09406,0.5309303 l 0.719024,2.686297 c 0,0.1564663 0,0.1872322 -0.312927,0.4377539 L 17.509127,20.435717 17.3219,20.592182 16.571231,21.185526 c -0.187225,0.156466 -0.250513,0.187232 -0.375332,0.12482 -3.794652,-1.562027 -7.4381162,-2.003296 -10.4434244,0.906274 -0.094053,0.156466 -0.1564625,0.437754 -0.1564625,0.624986 0,0.312054 0.094053,0.500165 0.3129249,0.780573 2.7152375,2.84716 5.488491,5.638061 8.317118,8.371824 -0.960974,0.990727 -0.687379,0.721677 -3.501945,3.564442 -5.5860579,6.406326 -7.9110185,9.669262 -7.9110185,9.669262 l 9.6690235,-7.911215 3.494912,-3.542466 8.505225,8.403468 c 0.312923,0.218878 0.656614,0.281288 1.031948,0.187232 0.343689,-0.09403 0.500153,-0.187232 0.813079,-0.593342 1.934682,-3.051969 1.568139,-7.086692 0.43774,-9.903082 -0.0624,-0.124823 -0.0624,-0.249645 0,-0.312053 3.963422,-5.136138 8.456881,-10.145694 11.975525,-14.619925 h 0.18723 c 1.010852,0.198657 1.946109,0.567848 2.939383,0.687396 0.156461,-0.03165 0.250513,-0.03165 0.375334,-0.12482 1.042495,-0.807823 1.959295,-1.76596 2.72051,-2.842764 0.09404,-0.187234 0.03165,-0.406109 -0.156463,-0.655753 C 41.238672,10.135316 37.332388,6.3045294 33.799679,3.0670844 l -0.188108,-0.031646 c -1.297407,0.5942202 -2.27134,1.7800233 -3.12661,2.8744093 z"
     id="path288"
     style="fill:url(#linearGradient976);fill-opacity:1;stroke:#010101;stroke-width:1.99677;stroke-linecap:round;stroke-dasharray:none;stroke-opacity:1;paint-order:stroke fill markers"
     sodipodi:nodetypes="cccccccccscccccccccccccccccccc" /></svg>
