<?xml version="1.0" encoding="UTF-8" standalone="no"?>
<svg width="700" height="320" version="1.1" viewBox="0 0 185.21 84.667" xml:space="preserve" id="svg10" sodipodi:docname="AccountProfile.svg" inkscape:version="1.3.2 (091e20ef0f, 2023-11-25, custom)" xmlns:inkscape="http://www.inkscape.org/namespaces/inkscape" xmlns:sodipodi="http://sodipodi.sourceforge.net/DTD/sodipodi-0.dtd" xmlns:xlink="http://www.w3.org/1999/xlink" xmlns="http://www.w3.org/2000/svg" xmlns:svg="http://www.w3.org/2000/svg">
	<sodipodi:namedview id="namedview10" pagecolor="#ffffff" bordercolor="#000000" borderopacity="0.25" inkscape:showpageshadow="2" inkscape:pageopacity="0.0" inkscape:pagecheckerboard="0" inkscape:deskcolor="#d1d1d1" showgrid="true" inkscape:zoom="2.8991378" inkscape:cx="289.91378" inkscape:cy="213.85669" inkscape:window-width="1920" inkscape:window-height="1004" inkscape:window-x="0" inkscape:window-y="0" inkscape:window-maximized="1" inkscape:current-layer="g17">
		<inkscape:grid id="grid10" units="px" originx="0" originy="0" spacingx="0.26458571" spacingy="0.26458437" empcolor="#0099e5" empopacity="0.30196078" color="#0099e5" opacity="0.14901961" empspacing="4" dotted="false" gridanglex="30" gridanglez="30" visible="true" />
	</sodipodi:namedview>
	<defs id="defs4">
		<linearGradient id="b" x1="97.367" x2="96.308" y1="2.1167" y2="82.55" gradientUnits="userSpaceOnUse">
			<stop stop-color="#898989" offset="0" id="stop1" />
			<stop stop-color="#898989" stop-opacity="0" offset="1" id="stop2" />
		</linearGradient>
		<linearGradient id="a" x1="97.367" x2="96.308" y1="2.1167" y2="82.55" gradientTransform="translate(-.12958 -.00060551)" gradientUnits="userSpaceOnUse">
			<stop stop-color="#fff" stop-opacity="0" offset="0" id="stop3" />
			<stop stop-color="#2a06ff" offset="1" id="stop4" />
		</linearGradient>
		<linearGradient id="A" x1=".135" y1=".135" x2="16.798" y2="16.797" gradientUnits="userSpaceOnUse">
			<stop offset="0" stop-color="#cda600" id="stop1-3" />
			<stop offset=".245" stop-color="#e6d059" id="stop2-5" />
			<stop offset=".49" stop-color="#ffe401" id="stop3-6" />
			<stop offset="1" stop-color="#e1aa00" id="stop4-2" />
		</linearGradient>
		<linearGradient id="B" x1="35.946" y1="28.049" x2="63.579" y2="33.967" gradientUnits="userSpaceOnUse">
			<stop offset="0" stop-color="#fff087" id="stop5" />
			<stop offset="1" stop-color="#d0c700" id="stop6" />
		</linearGradient>
		<path id="C" d="M8.077 16.449l-.789-.267-.997-.401-1.021-.497-1.067-.63-.951-.685c-.23-.185-.606-.531-.836-.77l-.631-.712-.379-.538a8.97 8.97 0 0 1-.358-.641c-.106-.209-.243-.53-.306-.713l-.214-.726-.1-.394-.016-4.11-.016-4.11.083-.044c.046-.024.386-.108.756-.186L2.463.792 3.855.606 5.479.454C5.951.419 7.142.395 8.448.395l2.969.059 1.74.171 1.508.207 1.113.215c.306.066.602.149.658.184l.102.065-.024 3.766-.024 3.766-.067.533a6.76 6.76 0 0 1-.179.904l-.232.669a8.36 8.36 0 0 1-.355.723c-.129.234-.369.602-.531.818a9.69 9.69 0 0 1-.73.83l-.756.696-.763.558-.818.514-.881.464-.921.415-.835.306-.703.212-.325.068c-.022-.003-.165-.042-.318-.088z" />
	</defs>
	<rect x="4.7625" y="14.287" width="49.742" height="46.567" ry="2.1167" fill="#e2e2e2" fill-opacity=".24054" id="rect4" />
	<path d="m29.567 15.781c-0.06631 0.25884-0.13263 1.8982-0.16578 3.6237-0.04974 3.0543-0.06631 3.1578-0.56366 4.3312-0.28183 0.67298-0.51393 1.3977-0.51393 1.6393 0 0.41414-0.87865 2.3986-1.4589 3.2959-0.31499 0.48317-0.33156 0.48317-0.51393 0.13805-0.24867-0.50042-0.2321-1.0354 0.0829-2.0017 0.3813-1.1389 0.21552-1.1389-0.33157 0-0.51393 1.0526-0.51393 1.9154 0 2.5021 0.39788 0.44866 0.64655 0.41414 1.061-0.18982 0.19894-0.29335 0.48077-0.51768 0.64656-0.51768 0.56366 0 0.79576-0.55219 0.91181-2.1225 0.0829-1.1389 0.23209-1.7774 0.6134-2.5884 0.29841-0.65573 0.48077-1.346 0.48077-1.8119 0-0.39689 0.03315-0.72475 0.0829-0.72475 0.03315 0 0.34814 0.20707 0.69629 0.44865 0.48077 0.32786 0.79576 0.4314 1.376 0.37963 0.72945-0.03451 0.74602-0.03451 0.94496 0.63847 0.31499 1.1216 0.28183 1.2942-0.28183 1.2942-1.1771 0-3.2659 0.70749-3.5643 1.2252-0.21552 0.36238 0.08291 0.36238 0.77918 0.01726 0.39788-0.20707 1.2434-0.46591 1.8733-0.56945l1.1605-0.20707 0.94496 0.63847c0.5305 0.36238 1.1936 0.69024 1.492 0.7075 0.29841 0.03452 0.58024 0.08629 0.62997 0.10354 0.04973 0.01726 0.1492 0.01726 0.21552 0 0.06632-0.01726 0.09947 0.18982 0.0829 0.4314-0.03316 0.25884 0.03315 0.50042 0.14921 0.53494 0.26525 0.10354 0.43103-0.84554 0.29841-1.6738l-0.11606-0.69025h1.4755c0.79576 0 2.321 0.12079 3.3654 0.24158 1.0444 0.13805 2.9178 0.29335 4.1446 0.36238 1.6744 0.08629 2.7852 0.24158 4.3932 0.65573 1.7407 0.44865 2.0226 0.55219 1.492 0.5867-0.36472 0.03451-1.26 0.12079-1.9894 0.22433-0.72945 0.08629-2.437 0.25884-3.813 0.34512l-4.2275 0.34512-2.6028 0.22433-0.87865 0.06902v-0.79378c-0.01659-0.4314-0.11605-1.0354-0.24867-1.3115-0.21552-0.50042-0.21552-0.44865-0.2321 0.82828-0.01659 1.2942-0.03315 1.3287-0.3813 1.2597-1.2931-0.2761-1.6247-0.29335-1.6247-0.05176 0 0.29335 0.49735 0.46591 1.376 0.46591h0.61339v1.5875l-0.51392-0.53494c-0.74603-0.79377-2.122-1.1561-3.2991-0.89731-0.49735 0.12079-1.3594 0.2761-1.9065 0.37963-1.3926 0.24158-2.2878 0.56945-3.7301 1.3632a92.727 96.518 0 0 1-2.9344 1.553c-0.92839 0.46591-1.9397 1.0871-2.2546 1.3805-0.89523 0.81103-1.0279 0.72475-0.94496-0.60396 0.01659-0.5867 0.16578-0.82828 0.96154-1.6566 1.061-1.0871 1.4755-1.3632 2.0889-1.3632 0.2321 0 0.46419-0.08629 0.5305-0.18982 0.0829-0.13805-0.09947-0.1553-0.6134-0.06903-0.9118 0.1553-1.1936 0.31061-2.1883 1.1734-0.43104 0.37963-0.81234 0.65573-0.84549 0.62121-0.03315-0.03452 0.0829-0.62121 0.24868-1.2769 0.16578-0.67298 0.31498-1.3977 0.31498-1.6393 0-0.50042 0.46419-0.74201 1.8236-0.94908 0.74602-0.12079 1.4092-0.39689 1.2765-0.53494-0.03315-0.03452-0.28183 0-0.54708 0.08629-0.26525 0.08629-0.94496 0.20707-1.5086 0.25884l-1.0444 0.10353v-1.0699c0-0.88005 0.0829-1.1907 0.44762-1.7429 0.43104-0.65572 0.44761-0.65572 1.2765-0.55219l1.5086 0.17256 0.66313 0.08629-0.66313-0.32786c-0.36472-0.18982-0.89523-0.34512-1.1936-0.34512-0.28183-0.01726-0.56366-0.08629-0.62998-0.17256-0.04974-0.08629 0.26525-0.50042 0.69629-0.91457 1.3428-1.2769 1.7739-1.7429 2.8515-3.0716 1.1936-1.4668 1.7241-1.8636 0.79576-0.5867l-1.5086 2.0535c-0.48077 0.67298-1.2434 1.5013-1.6744 1.8636-0.97812 0.77652-0.7626 0.84554 0.31499 0.10353 0.69629-0.50042 2.4204-2.4676 3.382-3.8826 0.43104-0.65573 0.64655-1.8636 0.36472-2.0535-0.11605-0.06902-0.29841 0.03452-0.44761 0.25884-0.44761 0.67298-1.5418 1.8982-3.5146 3.9689-1.7076 1.8119-1.9397 1.9844-2.4867 1.9844h-0.59683l0.03315 0.79377 0.04974 0.81103-1.492 1.4322c-1.3926 1.346-1.7407 1.9154-1.3926 2.2778 0.06631 0.06903 0.13263 0.37963 0.16578 0.7075 0.09948 1.2079 0.48077 1.8119 1.4257 2.2605 0.48077 0.22433 0.79576 0.41414 0.67971 0.41414-0.11605 0.01726-0.62998 0.44866-1.1439 0.98359l-0.94496 0.94908-0.67971-0.50042c-0.3813-0.2761-1.1936-0.82828-1.8402-1.2424-1.1273-0.70749-2.0723-1.5013-2.0723-1.7256 0-0.06902 0.18236-0.08629 0.41446-0.03451 0.2321 0.03451 0.41446 0.12079 0.41446 0.18981 0 0.05176 0.14921 0.20707 0.34814 0.32786 0.31499 0.20707 0.31499 0.18982-0.04974-0.32786-0.21552-0.29335-0.54708-0.60396-0.72945-0.67298-0.49735-0.20707-1.061-0.01726-1.061 0.32786 0 0.44865 1.26 1.6048 2.8017 2.5884 0.7626 0.50042 1.5584 1.0354 1.7739 1.2079l0.39788 0.32786-0.64656 0.44865c-0.41446 0.29335-0.72944 0.41414-0.92838 0.34512-0.24868-0.10353-0.28183-0.05176-0.21552 0.24159 0.06631 0.20707 0 0.44865-0.13262 0.56945-0.13263 0.10353-0.2321 0.3106-0.2321 0.46591 0 0.20707-0.1492 0.24158-0.7626 0.13805-0.43103-0.05176-0.87865-0.10354-1.0279-0.10354s-0.21552-0.12079-0.1492-0.34512c0.06632-0.2761 0.03316-0.31061-0.18236-0.18982-0.19894 0.12079-0.48077 0-1.0444-0.4314-0.87865-0.67298-2.4039-1.4322-3.2494-1.6393-0.54708-0.12079-0.56366-0.10354-0.46419 0.24158 0.21552 0.742 0.43104 3.3304 0.34814 4.0897-0.04973 0.4314-0.13263 1.4322-0.19894 2.226-0.04973 0.79377-0.24867 1.8809-0.43103 2.3986-0.18236 0.51768-0.39788 1.346-0.46419 1.8291l-0.11604 0.88005-0.11605-0.69024c-0.26525-1.5703-0.82891-3.8653-0.92838-3.7963-0.099465 0.05176 0 0.91456 0.43104 3.9344 0.066309 0.48316 0.049732 0.81103-0.049733 0.81103-0.2321 0-0.77918-0.65573-1.376-1.6738-0.49735-0.88005-0.72944-1.0699-0.87865-0.77652-0.049735 0.06904 0.01658 0.91457 0.1492 1.8982 0.19894 1.6048 0.31499 1.9499 1.1439 3.6065 0.67971 1.3632 0.91181 2.0189 0.91181 2.5539 0 0.69024-0.033154 0.72475-0.86207 1.1389-0.48077 0.22433-0.89523 0.51768-0.94496 0.65572-0.049735 0.18982 0.09947 0.15531 0.53051-0.12079 0.89523-0.53493 0.89523-0.1553 0.016582 0.69024-0.84549 0.82828-1.061 0.94908-1.061 0.65573 0-0.10354-0.066313-0.13805-0.16578-0.08629-0.082892 0.05176-0.16578 0.29335-0.16578 0.53494 0 0.72475 0.58024 0.50042 1.6413-0.62121 0.54708-0.56945 1.0444-1.1907 1.0942-1.3805 0.066309-0.18982 0.18236-0.34512 0.28183-0.34512 0.082897 0 0.11605 0.12079 0.066309 0.2761-0.39788 1.0699-0.28183 1.3115 0.41446 0.91457 0.26525-0.13805 0.29841-0.22433 0.14921-0.41415-0.3813-0.46591-0.033153-0.91456 0.92839-1.2079l0.91181-0.27609 1.2765 1.1561c0.69629 0.62121 1.5252 1.2597 1.8236 1.415 0.28183 0.1553 0.53051 0.32786 0.53051 0.39689 0 0.29335-2.3375 2.1397-3.5146 2.7437-1.1771 0.63847-1.2931 0.742-1.691 1.6566-0.44761 1.0181-0.48077 1.5185-0.04973 0.63847 0.39788-0.75926 1.2765-1.5358 2.2712-2.0017 0.87865-0.41415 3.3157-2.3986 3.3157-2.7092 0-0.12079 1.8402 0.5867 2.1386 0.81103 0.26525 0.20707-0.84549 0.82828-2.5531 1.4322-1.6081 0.55219-1.8236 0.67298-1.1605 0.5867 3.5809-0.4314 4.3767-1.1389 4.6751-4.1414 0.06632-0.82829 0.03315-1.1907-0.2321-1.8119-0.3813-0.8628-1.4257-2.0017-2.5365-2.7955-0.9947-0.69024-1.6578-1.346-1.6578-1.6221 0-0.12079 0.18236-0.31061 0.39788-0.41414 0.41446-0.20707 1.6247 0.01727 3.7135 0.67298 1.0444 0.32786 1.2931 0.5867 1.4423 1.5358 0.09946 0.69024 0.0829 0.74201-0.28183 0.75926-0.34814 0.01726-0.34814 0.03451 0.11605 0.24158 0.66313 0.31061 0.92838 0.06904 0.72944-0.63847-0.0829-0.31061-0.11605-0.5867-0.06632-0.62121 0.03315-0.03451 0.51393 0.39689 1.061 0.98359 1.1107 1.2079 1.8568 2.6402 2.752 5.3493 1.0942 3.2786 1.8236 4.4175 3.1333 4.8489 0.79576 0.25884 1.6744 0.15531 3.4151-0.44866 1.0444-0.36238 1.2765-0.50042 1.0942-0.65572-0.19894-0.1553-0.18236-0.32786 0.19894-1.1734 0.34814-0.77652 0.64656-1.1389 1.3594-1.6393 0.49735-0.36238 1.0444-0.93182 1.2102-1.2597 0.43104-0.84554 0.29841-2.2088-0.33157-3.71-0.28183-0.67298-0.62998-1.8636-0.77918-2.6747-0.1492-0.81103-0.54708-2.0535-0.86207-2.761-0.71287-1.553-0.77918-2.83-0.24868-4.2967 0.49735-1.3805 1.1273-2.2088 2.4536-3.2269 0.69629-0.53494 1.4423-1.2942 1.7905-1.8291 0.9947-1.5358 1.7241-4.4865 1.7407-7.0059v-0.89731h1.3097c0.72945 0 1.8733-0.06902 2.5365-0.17256 0.66313-0.08629 2.4702-0.24158 3.9954-0.34512 2.9012-0.18982 4.3269-0.37963 6.3992-0.8628l1.2102-0.27609-1.6247-0.55219c-2.4702-0.82829-3.5975-1.0526-5.8687-1.1562-1.1439-0.06902-3.1167-0.22433-4.3767-0.37963-1.2599-0.13805-2.8515-0.22433-3.5146-0.18982-2.4038 0.17256-0.51392-0.41414 2.1386-0.65573 0.71287-0.06902 1.3263-0.18981 1.376-0.25884 0.04974-0.08629-0.56366-0.1553-1.376-0.1553-1.2434 0-2.122 0.1553-3.5478 0.63847-0.26525 0.08629-0.77918-0.81103-1.3097-2.295-0.29841-0.81103-0.3813-0.29335-0.0829 0.56944 0.64655 1.9327 0.72944 2.295 0.49735 2.295-0.11605 0-0.51393-0.62122-0.87865-1.3805-0.5305-1.1389-0.6134-1.415-0.43103-1.5703 0.3813-0.32786 0.26525-0.67298-0.26525-0.88005-0.31499-0.10354-0.62998-0.41414-0.81234-0.81103-0.41446-0.84554-0.92838-1.2942-1.2931-1.1561-0.24867 0.10354-0.23209 0.1553 0.13263 0.50042 0.2321 0.20707 0.51393 0.51768 0.62997 0.67298 0.19894 0.27609 0.16578 0.31061-0.36472 0.31061-0.53051 0-0.62997-0.08629-1.0942-0.91456-0.26526-0.48317-0.72945-1.5185-1.0113-2.2778l-0.58023-1.4322c-0.01659-0.03451-0.09948 0.17256-0.16578 0.4314zm1.3097 3.4684c0.39788 0.82829 0.41446 0.91457 0.1492 1.0008-0.16578 0.05177-0.43104 0.17256-0.58024 0.25884-0.16578 0.08629-0.36472 0.1553-0.46419 0.1553-0.18236 0-0.23209-3.3131-0.04973-3.5202 0.06631-0.06902 0.19894 0.17256 0.29841 0.53493 0.11605 0.36238 0.39788 1.0699 0.64655 1.5703zm1.0776 1.8464 0.33156 0.60396h-0.5305c-0.29841-0.01727-0.71287-0.13805-0.94496-0.2761-0.41446-0.25884-0.41446-0.25884 0.19894-0.17256 0.67971 0.08629 1.061-0.20707 0.46419-0.36237-0.26525-0.06903-0.29841-0.13805-0.13262-0.24158 0.11605-0.08628 0.2321-0.1553 0.24867-0.1553zm1.3428-0.2761c0.26525 0.51768 0.19894 0.70749-0.21552 0.70749-0.24868 0-0.48077-0.18982-0.66313-0.51768l-0.29841-0.51768h0.49735c0.33157 0 0.56366 0.12079 0.67971 0.32786zm1.0776 2.2605 0.58024 1.2079h-0.64655c-0.64656 0-0.64656 0-0.7626-0.82828-0.06631-0.44866-0.18236-0.94908-0.26525-1.1044-0.13263-0.25884 0-0.4314 0.3813-0.46591 0.06632-0.01726 0.39788 0.51768 0.71287 1.1907zm1.0444 2.088c0.11605 0.20707 0.19894 0.37963 0.16578 0.41414-0.03315 0.03451-0.3813-0.13805-0.79576-0.34512l-0.74602-0.41414 0.58024-0.01726c0.41446 0 0.64655 0.10354 0.79576 0.36238zm-13.462 1.8291c-0.11605 0.12079-1.9728 0.41414-2.0557 0.32786-0.04974-0.05176 0.34814-0.53494 0.89523-1.0526l0.97812-0.93182 0.11605 0.81103c0.06631 0.4314 0.09947 0.82828 0.06631 0.84554zm-0.09948 0.77652c0 0.22433-0.5305 2.761-0.59682 2.8645-0.01659 0.03451-0.24867-0.05176-0.53051-0.20707-0.5305-0.29335-0.87865-0.98359-0.91181-1.8464-0.03315-0.55219-0.01659-0.56945 0.87865-0.77652l1.0444-0.22433c0.06632 0 0.11605 0.08628 0.11605 0.18982zm13.495 1.0181c0.34814 0.10353 0.94496 0.48317 1.3428 0.8628l0.69629 0.67298-0.1492 0.94908c-0.2321 1.5703-0.9118 3.5375-1.5418 4.4865-0.33156 0.50042-1.0444 1.2252-1.5749 1.6221-1.691 1.2424-2.5199 2.5194-2.9178 4.5383-0.28183 1.415-0.19894 2.1052 0.46419 3.4684 0.26525 0.55219 0.66313 1.8291 0.87865 2.8472 0.23209 1.0181 0.64655 2.3641 0.91181 3.0198 0.86207 2.0189 0.64655 2.968-0.89523 4.1242-1.0113 0.77652-1.2931 1.2079-1.807 2.9163-0.11605 0.36238-1.9728 0.93182-3.0504 0.93182-1.5584 0-2.1386-0.81103-3.6141-5.0042-1.1107-3.1233-1.5086-3.8481-3.1001-5.4701l-1.3097-1.3287-0.08288-1.2597c-0.04974-0.69024-0.21552-2.1225-0.39788-3.1578-0.71287-4.2622-0.82892-5.0733-0.82892-6.0051 0-0.53493-0.06631-1.0008-0.1492-1.0526-0.0829-0.05176-0.18236-0.24158-0.2321-0.4314-0.04973-0.24158 0.11605-0.48317 0.66313-0.88005 0.89523-0.67298 0.51393-0.96634 4.0119 3.037 2.1718 2.4849 2.752 3.2786 3.6472 4.9179 1.5915 2.968 4.8243 7.8169 4.8243 7.2475 0-0.08629-0.87865-1.6048-1.9397-3.3649-1.0776-1.7601-2.3707-3.9516-2.868-4.8662-0.89523-1.6393-2.0391-3.037-5.3216-6.54l-1.2765-1.3805 0.36472-0.4314c0.19894-0.24158 0.58024-0.62122 0.84549-0.8628l0.46419-0.4314-0.11605 0.5867c-0.21552 1.2424 0.77918 1.8291 1.5749 0.94908 0.21552-0.25884 1.2599-0.89731 2.3044-1.4322l3.2162-1.7256c1.0444-0.60396 1.7573-0.84554 3.4814-1.2252 2.5696-0.56944 2.6525-0.56944 3.4814-0.32786zm-23.359 5.5392c1.1605 0.7075 1.8899 1.2424 1.9065 1.3632 0 0.05176-0.46419 0.44865-1.0279 0.8628-0.54708 0.41414-1.26 0.98359-1.5584 1.2424l-0.54708 0.48317 0.09947-0.82829c0.08289-0.77652-0.1492-2.9335-0.3813-3.5892-0.09947-0.24158-0.04973-0.2761 0.28183-0.17256 0.21552 0.06904 0.77918 0.36238 1.2268 0.63847zm3.7799 2.088c0.62998 0.12079 0.94496 0.2761 0.94496 0.4314 0 0.24159 0.21552 0.22433 0.87865-0.05176 0.2321-0.10353 0.28183-0.03452 0.28183 0.44866 0 0.62122 0.31499 2.8645 0.82891 5.936 0.16578 1.0354 0.34815 2.3468 0.39788 2.899 0.06631 0.89731 0.04973 1.0008-0.19894 0.88006-0.89523-0.39689-3.8296-1.1044-4.3269-1.0354-0.67971 0.10354-1.1771 0.55219-1.1771 1.0526 0 0.39689 0.84549 1.3115 1.9894 2.1225 0.97812 0.69024 2.0557 1.8809 2.321 2.5884 0.13263 0.37963 0.16578 0.89731 0.09948 1.6048-0.18236 1.5703-0.1492 1.553-1.1936 1.1216-0.48077-0.18982-0.89523-0.44866-0.89523-0.53493 0.01659-0.36238 0.81234-1.1216 1.061-1.0181 0.33156 0.13804 0.33156-0.10354 0.01659-0.55219-0.24867-0.32786-0.26525-0.31061-0.64655 0.13805-0.21552 0.25884-0.51393 0.63847-0.66313 0.8628l-0.26525 0.39688-0.6134-0.34512c-0.33157-0.1898-1.1605-0.88004-1.8402-1.5358l-1.2268-1.2079-1.0279 0.27609c-0.54708 0.1553-1.1439 0.34512-1.2931 0.39689-0.3813 0.1553-0.3813-0.20707-0.049733-2.0707 0.16578-0.88005 0.21552-1.7256 0.1492-2.3641-0.066309-0.63847-0.049733-1.0008 0.066309-1.0008 0.082887 0 0.21552-0.51768 0.28183-1.1734 0.06631-0.63847 0.28183-1.6221 0.49735-2.1915 0.19894-0.56945 0.41446-1.553 0.48077-2.1915 0.11605-1.0699 0.18236-1.2252 0.81234-1.8636 1.1273-1.1389 2.8349-2.3986 3.1001-2.2778 0.13263 0.05176 0.67971 0.17256 1.2102 0.25884zm-7.5265 9.2319c0.41446 0.24158 0.48077 0.41414 0.56366 1.2252 0.049733 0.53494 0.033154 1.3115-0.033155 1.7429l-0.09947 0.77652-0.71287-1.3805c-0.61339-1.1734-1.1771-3.037-1.1936-3.8653 0-0.13805 0.2321 0.08628 0.51393 0.48317 0.28183 0.41414 0.71287 0.8628 0.96154 1.0181zm20.325-12.614c-1.9562 0.12079-1.5086 0.31061 0.91181 0.39689 1.4092 0.05176 2.7023 0.15531 2.868 0.24158 0.16578 0.08628 0.28183 0.06902 0.28183-0.03452 0-0.44866-1.9065-0.72475-4.0617-0.60396zm1.3594 1.1044c-0.24867 0.20707-1.061 0.62121-1.7905 0.94908-0.79576 0.34512-1.492 0.79377-1.7407 1.0871-0.2321 0.29335-0.67971 0.69024-0.9947 0.89731-0.31499 0.20707-0.54708 0.39689-0.51393 0.44866 0.09947 0.10353 1.2765-0.5867 1.7076-1.0008 0.18236-0.18982 0.94496-0.60396 1.691-0.93182 0.72944-0.31061 1.7241-0.8628 2.1883-1.1907 0.81234-0.5867 0.84549-0.62121 0.39788-0.62121-0.26525 0-0.69629 0.17256-0.94496 0.36237zm-14.042 9.4735c-0.31499 0.08629-0.91181 0.10354-1.3428 0.05176-0.89523-0.10354-1.7241 0.25884-2.006 0.89731-0.19894 0.46591-1.0942 1.1734-1.8568 1.4668-0.79576 0.31061-0.3813 0.36238 0.48077 0.05176 0.51393-0.17256 1.061-0.55219 1.5086-1.0526 0.69629-0.75926 0.7626-0.77652 1.9231-0.89731 0.66313-0.05176 1.4423-0.22433 1.7076-0.39689 0.54708-0.31061 0.46419-0.32786-0.41446-0.12079z" id="path4" />
	<text x="107.69531" y="19.79105" style="fill: var(--text-colour)" font-family="Arial" font-size="11.091px" stroke-linecap="round" stroke-linejoin="round" stroke-width=".1332" text-align="center" text-anchor="middle" xml:space="preserve" id="text4">
		<tspan x="107.69531" y="19.79105" style="fill: var(--text-colour)" font-family="Arial" stroke-width=".1332" id="tspan4">I'm Zekiah, a creator</tspan>
	</text>
	<text x="58.356434" y="30.956026" style="fill: var(--text-colour)" font-family="Arial" font-size="5.0554px" stroke-linecap="round" stroke-linejoin="round" stroke-width=".060716" xml:space="preserve" id="text7">
		<tspan x="58.356434" y="30.956026" id="tspan5">I live in a society. This is one of the sites ever, and I</tspan>
		<tspan x="58.356434" y="37.275314" id="tspan6">write some of the poems ever. I also run this ship</tspan>
		<tspan x="58.356434" y="43.594601" id="tspan7">(to the bottom of the ocean).</tspan>
	</text>
	<text x="65.275276" y="53.837845" style="fill: var(--text-colour)" font-family="'Times New Roman'" font-size="5.2088px" stroke-linecap="round" stroke-linejoin="round" stroke-width=".062558" xml:space="preserve" id="text8">
		<tspan x="65.275276" y="53.837845" style="fill: var(--text-colour)" font-family="'Times New Roman'" stroke-width=".062558" id="tspan8">The United Kingom.</tspan>
	</text>
	<text x="65.216927" y="60.220406" style="fill: var(--text-colour)" font-family="'Times New Roman'" font-size="5.292px" stroke-linecap="round" stroke-linejoin="round" stroke-width=".063557" xml:space="preserve" id="text9">
		<tspan x="65.216927" y="60.220406" style="fill: var(--text-colour)" font-family="'Times New Roman'" stroke-width=".063557" id="tspan9">Nothing pinned yet.</tspan>
	</text>
	<g id="g17" transform="translate(0.76671095,-0.47441913)">
		<path style="fill:#a2c78f" d="m 64.017471,74.600363 c -64.78418195,-74.12615816 -64.78418195,-74.12615816 0,0 z m 21.916676,-0.944472 c -0.324006,-0.413133 -0.314792,-0.422346 0.09835,-0.09834 0.250713,0.196621 0.455842,0.401748 0.455842,0.455837 0,0.214383 -0.213903,0.0764 -0.554188,-0.357492 z m 6.545261,0.357492 c 0,-0.05409 0.205129,-0.259216 0.455843,-0.455837 0.413138,-0.324001 0.422351,-0.314788 0.09835,0.09834 -0.340285,0.433892 -0.554189,0.571875 -0.554189,0.357492 z M 61.242202,70.052609 c 0.01225,0 0.0718,-0.362633 0.152473,-0.169368 0.0016,0.0039 0.0033,0.0079 0.0049,0.01199 0.07525,0.188031 0.06599,0.412696 -0.02057,0.49925 -0.08655,0.08656 -0.14812,-0.06729 -0.136809,-0.341877 z m 24.72517,-3.104033 c 0.336476,-0.358158 0.670383,-0.651196 0.742015,-0.651196 0.07163,0 -0.145057,0.293038 -0.481533,0.651196 -0.336476,0.358158 -0.670382,0.651196 -0.742015,0.651196 -0.07163,0 0.145058,-0.293038 0.481533,-0.651196 z m 6.752803,-0.06512 -0.631489,-0.716316 0.716324,0.631481 c 0.669512,0.590215 0.835778,0.80115 0.631489,0.80115 -0.04666,0 -0.369005,-0.322342 -0.716324,-0.716315 z M 66.240862,65.866087 c -67.00757295,-65.39188216 -67.00757295,-65.39188216 0,0 z M 61.601649,52.995659 c -0.09443,-0.152794 -0.115832,-0.333672 -0.04755,-0.401951 0.06828,-0.06828 0.193555,0.05674 0.27839,0.277808 0.176133,0.458991 0.02601,0.539726 -0.230837,0.124143 z" id="path23" sodipodi:nodetypes="ssssssssssssscsssssssssssscsccscsss" />
		<path style="fill:#a1a3a0" d="M 63.956692,74.661326 C 62.2223,73.860862 60.953274,72.000387 60.966876,70.27804 c 0.01478,-1.872025 1.712972,-3.95474 3.627632,-4.52838 3.293856,-0.986853 6.757606,2.476857 5.770743,5.770673 -0.402715,1.344125 -1.467188,2.56053 -2.751043,3.143697 -1.333516,0.605725 -2.340826,0.60498 -3.657516,-0.0027 z m 2.735055,-0.02047 c 0,-0.138767 0.175825,-0.184834 0.390722,-0.102371 0.214897,0.08246 0.390722,0.01326 0.390722,-0.153787 0,-0.167045 0.08791,-0.256787 0.195361,-0.199426 0.256554,0.13696 2.151152,-1.80789 1.953611,-2.005428 -0.08357,-0.08357 -0.0027,-0.151946 0.179816,-0.151946 0.484365,0 -0.09251,-0.781435 0.284202,-0.781435 0.138768,0 0.252306,-0.410253 0.252306,-0.911673 0,-0.501421 -0.113538,-0.911674 -0.252306,-0.911674 -0.369806,0 0.180791,-0.781435 -0.256161,-0.781435 -0.167048,0 -0.231279,-0.117215 -0.142737,-0.260478 0.08854,-0.143264 0.03685,-0.260479 -0.114867,-0.260479 -0.15172,0 -0.275855,-0.125587 -0.275855,-0.279084 0,-0.360626 -0.662689,-1.023307 -1.02332,-1.023307 -0.153498,0 -0.279087,-0.09768 -0.279087,-0.217065 0,-0.119386 -0.146521,-0.225773 -0.325602,-0.236417 -0.179081,-0.01064 -0.699862,-0.170565 -1.157292,-0.355383 -0.743555,-0.300423 -0.978184,-0.268563 -2.214092,0.300643 -1.702676,0.78418 -1.787771,0.865658 -2.500117,2.393851 -0.629217,1.349856 -0.728184,2.156862 -0.297174,2.423237 0.153031,0.09458 0.215318,0.335926 0.138415,0.536329 -0.0769,0.200404 -0.0067,0.36437 0.155897,0.36437 0.162646,0 0.218627,0.07709 0.124402,0.171315 -0.09422,0.09422 0.226401,0.533781 0.712502,0.976794 1.43647,1.309144 1.709401,1.491696 1.98009,1.324403 0.141457,-0.08742 0.257194,-0.03482 0.257194,0.116898 0,0.151718 0.410258,0.275851 0.911685,0.275851 0.501427,0 0.911685,-0.113536 0.911685,-0.252303 z m 20.968755,0.02047 C 85.92611,73.860862 84.65709,72.000387 84.670686,70.27804 c 0.01464,-1.855117 1.691467,-3.948297 3.627632,-4.52838 3.293856,-0.986851 6.757606,2.476857 5.770742,5.770673 -0.402714,1.344125 -1.467187,2.56053 -2.751042,3.143697 -1.333517,0.605725 -2.340827,0.60498 -3.657516,-0.0027 z m 3.031294,-0.03423 c 1.251361,-0.347578 2.999873,-2.244513 3.237773,-3.51261 0.270898,-1.443993 -0.25265,-2.783997 -1.557731,-3.986964 -1.943849,-1.791756 -4.16109,-1.736702 -5.99462,0.148846 -1.844031,1.896347 -1.879183,4.016907 -0.09861,5.94858 1.389058,1.506931 2.623695,1.899197 4.413186,1.402148 z M 59.790435,60.82574 c 0.2601,-0.287404 0.529404,-0.46606 0.598453,-0.397012 0.175026,0.175024 -0.474655,0.919565 -0.802405,0.919565 -0.147927,0 -0.05615,-0.235149 0.203952,-0.522553 z m 2.359634,-7.628626 c 0.09782,-0.256889 0.24347,-0.401455 0.323669,-0.321257 0.0802,0.0802 1.65e-4,0.29038 -0.177853,0.467071 -0.257255,0.255338 -0.287175,0.225419 -0.145816,-0.145814 z m -2.073767,-0.661668 c -0.07379,-0.119386 0.03136,-0.217066 0.23365,-0.217066 0.202293,0 0.307436,0.09768 0.233651,0.217066 -0.07379,0.119385 -0.178929,0.217065 -0.233651,0.217065 -0.05472,0 -0.159865,-0.09768 -0.23365,-0.217065 z" id="path22" sodipodi:nodetypes="ssssssssssssssssssssssssssssssssssssssssssssssssssssssssssssss" />
		<path style="fill:#58a8e2" d="m 88.767548,74.448857 c 0.322346,-0.06209 0.84982,-0.06209 1.172166,0 0.322346,0.06208 0.05861,0.112883 -0.586083,0.112883 -0.644692,0 -0.908429,-0.0508 -0.586083,-0.112883 z m -2.42584,-1.183683 -0.765058,-0.846554 0.846565,0.765048 c 0.46561,0.420777 0.846565,0.801726 0.846565,0.846554 0,0.201236 -0.214931,0.02406 -0.928072,-0.765048 z m 6.007459,0.06512 c 0.259306,-0.286527 0.530074,-0.520957 0.601706,-0.520957 0.07163,0 -0.08192,0.23443 -0.341224,0.520957 -0.259306,0.286526 -0.530073,0.520956 -0.601706,0.520956 -0.07163,0 0.08192,-0.23443 0.341224,-0.520956 z m -1.192769,-1.497987 c 0.12447,-0.898957 0.142628,-0.917115 0.228513,-0.22851 0.05132,0.411426 -0.0095,0.850877 -0.135214,0.976558 -0.131029,0.131028 -0.17083,-0.188089 -0.0933,-0.748048 z M 85.206493,71.355 c 0.0125,-0.303442 0.07422,-0.365164 0.157374,-0.157372 0.07524,0.188032 0.06599,0.412695 -0.02057,0.49925 -0.08655,0.08656 -0.14812,-0.06729 -0.136809,-0.341878 z m 8.355969,-0.369011 c 0,-0.358157 0.05912,-0.504676 0.131384,-0.325598 0.07226,0.179079 0.07226,0.472117 0,0.651196 -0.07226,0.179079 -0.131384,0.03256 -0.131384,-0.325598 z m -5.90196,0 c -0.08854,-0.143263 -0.03685,-0.260478 0.114868,-0.260478 0.151719,0 0.275854,0.117215 0.275854,0.260478 0,0.143263 -0.05169,0.260478 -0.114868,0.260478 -0.06318,0 -0.187312,-0.117215 -0.275854,-0.260478 z m 3.546715,-1.367511 c 0.02143,-0.415688 0.06397,-0.458131 0.146307,-0.14599 0.06385,0.242047 0.431207,0.488219 0.816348,0.547048 0.632152,0.09656 0.617922,0.110758 -0.146306,0.14599 -0.72382,0.03337 -0.842184,-0.04595 -0.816349,-0.547048 z m 2.34959,-0.01537 c -0.01982,-0.408869 -0.149081,-0.661476 -0.292971,-0.572548 -0.147657,0.09126 -0.191326,-0.0133 -0.102372,-0.245105 0.127087,-0.331181 -0.09709,-0.412733 -1.240271,-0.451197 l -1.395396,-0.04695 1.271027,-0.09894 1.271027,-0.09894 -0.750064,-0.829958 -0.750064,-0.829958 0.741073,0.650249 c 0.949022,0.832712 1.535004,1.961999 1.394058,2.686586 -0.08867,0.455853 -0.117601,0.42352 -0.146047,-0.163242 z m -8.350314,-0.331932 c 0.0125,-0.303442 0.07422,-0.365164 0.157374,-0.157372 0.07524,0.188032 0.06599,0.412695 -0.02057,0.49925 -0.08655,0.08655 -0.14812,-0.06729 -0.136809,-0.341878 z m 0.368555,-0.632082 c -0.08766,-0.141837 -0.02833,-0.257885 0.131843,-0.257885 0.160175,0 0.226992,-0.103934 0.148482,-0.230965 -0.07851,-0.12703 0.06109,-0.390764 0.310229,-0.586076 0.404097,-0.316795 0.416668,-0.308659 0.1165,0.0754 -0.186204,0.238242 -0.226748,0.470901 -0.09078,0.520956 0.13513,0.04975 0.08761,0.235802 -0.105599,0.413455 -0.221157,0.203351 -0.410331,0.227474 -0.510672,0.06512 z m 2.687817,-2.519648 c 0.188035,-0.07524 0.4127,-0.06599 0.499256,0.02056 0.08656,0.08656 -0.06729,0.148119 -0.341882,0.136808 -0.303446,-0.0125 -0.365169,-0.07422 -0.157374,-0.157372 z M 59.37823,54.856374 c -0.812685,-0.812676 -0.946944,-1.529279 -0.458378,-2.446585 0.449329,-0.843636 1.035723,-1.206215 1.911063,-1.181648 0.539231,0.01513 0.621982,0.06235 0.266976,0.152345 -0.585818,0.148499 -1.199908,0.853368 -1.08186,1.241786 0.04354,0.143263 -0.09555,0.389215 -0.309094,0.54656 -0.507072,0.373627 -0.143525,0.951434 0.475094,0.755095 0.354861,-0.112627 0.501454,-0.0022 0.564162,0.424838 0.122415,0.833715 0.596506,0.87051 0.959221,0.07445 0.247391,-0.542956 0.243146,-0.776603 -0.02023,-1.113778 -0.288903,-0.369845 -0.278693,-0.384136 0.07664,-0.107283 0.292804,0.228133 0.490097,0.239248 0.690448,0.0389 0.432105,-0.432099 0.682573,0.677073 0.293556,1.299981 -0.772073,1.236271 -2.303273,1.379654 -3.367596,0.315344 z m 1.310007,-2.117062 c -0.208056,-0.131616 -0.319676,-0.250065 -0.248044,-0.26322 0.07163,-0.01316 0.33537,-0.06319 0.586083,-0.11118 0.250713,-0.04799 0.455843,0.01266 0.455843,0.134796 0,0.373011 -0.394688,0.492133 -0.793882,0.239604 z" id="path21" />
		<path style="fill:#0559fd" d="m 87.790742,74.189425 c -0.816988,-0.296193 -2.104569,-1.792077 -2.360444,-2.742314 -0.261771,-0.97213 -0.07867,-2.987038 0.24227,-2.666097 0.08999,0.08999 0.456876,1.003875 0.815296,2.030852 0.573865,1.644284 0.729429,1.867232 1.302878,1.867232 0.579092,0 0.731199,-0.22864 1.373599,-2.064731 0.472232,-1.349721 0.633912,-2.153214 0.466882,-2.320241 -0.389553,-0.389549 -1.012165,0.260917 -1.359551,1.420372 -0.1666,0.556057 -0.386339,1.011013 -0.488308,1.011013 -0.101969,0 -0.330982,-0.519968 -0.508917,-1.155483 -0.319814,-1.142247 -0.828611,-1.614764 -1.375084,-1.277029 -0.154813,0.09568 -0.05632,-0.128478 0.218868,-0.498126 1.492404,-2.004668 4.531808,-2.229065 6.226956,-0.459734 l 0.752651,0.785589 h -1.168803 c -0.642843,0 -1.309464,0.140659 -1.481382,0.312574 -0.190156,0.190154 -0.312578,1.1154 -0.312578,2.362421 0,1.976778 0.02089,2.04688 0.586083,1.966611 0.449201,-0.0638 0.605147,-0.280953 0.667708,-0.92979 0.07227,-0.749509 0.171503,-0.846555 0.865664,-0.846555 1.040706,0 0.950346,-0.872523 -0.102951,-0.994095 -1.110895,-0.12822 -0.874166,-0.759269 0.327829,-0.873896 0.961288,-0.09167 1.044062,-0.04843 1.069527,0.558716 0.08939,2.131194 -0.591288,3.518677 -2.111982,4.305049 -0.72979,0.377384 -2.845676,0.49789 -3.646211,0.207662 z" id="path20" />
		<path style="fill:#46c835" d="m 64.998618,73.85125 c -0.28653,-0.123124 -0.386133,-0.232101 -0.221342,-0.24217 0.426073,-0.02604 1.036983,-2.96552 0.900147,-4.331191 -0.01518,-0.151508 -0.485289,-0.477398 -1.044684,-0.724199 -0.559396,-0.246802 -1.083192,-0.621006 -1.163992,-0.831564 -0.199105,-0.518854 -0.05701,-0.486732 1.112401,0.251478 l 1.004825,0.634311 1.062034,-0.525447 c 1.581937,-0.78267 2.268574,-0.507584 0.747354,0.299411 -1.105535,0.586478 -1.224577,0.739108 -1.224577,1.570104 0,0.506261 -0.165775,1.559549 -0.36839,2.340639 -0.202615,0.78109 -0.312913,1.509926 -0.245109,1.619635 0.144807,0.234299 0.123018,0.23192 -0.558667,-0.06101 z M 60.651834,55.700314 c 0.188035,-0.07524 0.4127,-0.06599 0.499256,0.02056 0.08656,0.08655 -0.06729,0.148118 -0.341882,0.136808 -0.303446,-0.0125 -0.365168,-0.07422 -0.157374,-0.157372 z m -1.513083,-0.732711 c -0.335945,-0.357593 -0.561507,-0.683575 -0.501248,-0.724404 0.06026,-0.04083 0.424431,0.251746 0.809273,0.650168 0.384841,0.398423 0.610403,0.724405 0.501248,0.724405 -0.109156,0 -0.473328,-0.292576 -0.809273,-0.650169 z m 3.124812,0.291345 c 0,-0.05409 0.205129,-0.259216 0.455842,-0.455836 0.413138,-0.324002 0.422352,-0.314789 0.09835,0.09834 -0.340286,0.433892 -0.554189,0.571875 -0.554189,0.357492 z m -1.334967,-0.497033 c -0.01791,-0.245594 -0.0485,-0.593054 -0.06797,-0.772132 -0.0197,-0.181099 -0.294247,-0.289432 -0.618643,-0.244106 -0.70076,0.09792 -0.771537,-0.353104 -0.110894,-0.706665 0.672295,-0.359797 1.768402,0.23593 1.656147,0.900104 -0.04708,0.278577 -0.252213,0.67814 -0.455842,0.887918 -0.324395,0.334189 -0.374268,0.326126 -0.402796,-0.06512 z m 2.160199,-0.850276 c -0.04574,-0.557802 -0.508852,-1.159128 -0.892701,-1.159128 -0.123067,0 -0.14806,0.146519 -0.05554,0.325598 0.09252,0.179078 -0.06095,0.04415 -0.341034,-0.299832 -0.3547,-0.43562 -0.677771,-0.581361 -1.064529,-0.480223 -0.305403,0.07986 -0.555279,0.03896 -0.555279,-0.09089 0,-0.12985 0.322346,-0.244331 0.716324,-0.2544 0.612709,-0.01566 0.642021,-0.04735 0.202643,-0.219056 -0.450904,-0.176214 -0.419071,-0.219574 0.260481,-0.354797 1.165417,-0.231903 2.016994,0.697136 1.878047,2.048881 -0.05754,0.559803 -0.124328,0.777532 -0.148411,0.483843 z m -4.471972,-1.404234 c 0,-0.134808 0.115874,-0.316719 0.257498,-0.404246 0.147656,-0.09126 0.191325,0.0133 0.102372,0.245106 -0.173166,0.451257 -0.35987,0.53382 -0.35987,0.15914 z m 2.018731,-1.490274 c 0.179081,-0.07226 0.472123,-0.07226 0.651204,0 0.179081,0.07226 0.03256,0.131382 -0.325602,0.131382 -0.358162,0 -0.504683,-0.05912 -0.325602,-0.131382 z" id="path19" sodipodi:nodetypes="sssssscsssssssscsssssssssssssssssssssssssssssssssssssssss" />
		<path style="fill:#b7413e" d="m 60.47951,60.526011 c -1.009379,-1.032405 -1.037987,-1.462424 -0.104437,-1.56984 0.442727,-0.05094 0.814532,-0.30627 0.973452,-0.668497 0.33256,-0.758009 1.177182,-0.259518 1.446276,0.07606 l 0.468228,0.583911 -0.62947,0.65336 c -0.348541,0.36177 -0.631248,0.799857 -0.677189,1.074511 -0.133539,0.79835 -0.595909,0.751545 -1.47686,-0.149502 z" id="path18" sodipodi:nodetypes="sssscssss" />
		<path style="fill:#61432a" d="m 64.732687,74.389968 c -1.256168,-0.300173 -2.142994,-1.020063 -2.716814,-2.205403 -0.691246,-1.427907 -0.674164,-2.413991 0.06607,-3.813772 0.672528,-1.271753 2.336736,-2.333891 3.656852,-2.333891 1.907817,0 3.80118,1.608323 4.15846,3.532417 0.306878,1.652658 -0.703919,3.76927 -2.163578,4.53054 -0.656213,0.34224 -2.170299,0.488609 -3.000986,0.290109 z m 0.859946,-0.422254 c -0.07921,-0.07921 0.01847,-0.683913 0.217068,-1.343789 0.198596,-0.659877 0.361083,-1.73812 0.361083,-2.396096 0,-1.159673 0.03751,-1.216222 1.224577,-1.84595 1.52122,-0.806995 0.834583,-1.082081 -0.747354,-0.299411 l -1.062034,0.525447 -1.004825,-0.634311 c -1.169415,-0.73821 -1.311506,-0.770332 -1.112401,-0.251478 0.0808,0.210558 0.604596,0.584762 1.163992,0.831564 0.958567,0.422914 1.017082,0.514139 1.017082,1.585648 0,1.470447 -0.499679,3.446269 -0.877487,3.469742 -0.162074,0.01007 -0.06025,0.119046 0.226284,0.24217 0.6411,0.275487 0.780339,0.302787 0.594015,0.116464 z m -4.891959,-15.06207 c 0,-0.05409 0.205129,-0.259216 0.455843,-0.455837 0.413138,-0.324001 0.422351,-0.314788 0.09835,0.09835 -0.340285,0.433891 -0.554189,0.571875 -0.554189,0.357492 z" id="path17" sodipodi:nodetypes="ssssssssssssscssssssssssss" />
		<rect style="fill:#e2e2e2;fill-opacity:0.240539;stroke:#898989;stroke-width:0.13229286;stroke-linecap:round;stroke-linejoin:round;stroke-dasharray:none;stroke-opacity:1" id="rect23" width="8.0345173" height="7.7449741" x="96.917679" y="66.471413" ry="1.6866159" />
		<g id="g23" transform="matrix(0.14170471,0,0,0.14170471,73.297383,65.981282)">
			<use xlink:href="#C" fill="url(#A)" transform="matrix(3.779626,0,0,3.779135,-0.002334,4.19e-4)" id="use6" style="fill:url(#A)" />
			<path d="m 32,1.493 v 60.961 l 0.956,-0.219 2.657,-0.805 3.156,-1.156 3.485,-1.568 3.33,-1.754 3.096,-1.942 2.884,-2.109 a 45.242,45.236 0 0 0 2.857,-2.63 c 0.9,-0.903 2.143,-2.317 2.759,-3.137 a 32.354,32.349 0 0 0 2.007,-3.091 l 1.342,-2.732 0.877,-2.528 c 0.234,-0.771 0.537,-2.309 0.677,-3.416 L 62.332,33.353 62.423,19.121 62.51,4.889 62.128,4.643 C 61.916,4.507 60.798,4.197 59.641,3.948 L 55.423,3.147 49.727,2.365 43.15,1.723 C 41.343,1.587 36.993,1.5 32,1.496 Z" opacity="0.486" fill="url(#B)" id="path6" style="fill:url(#B)" />
			<path d="M 32.862,35.94 H 26.406 L 23.84,29.096 H 12.096 L 9.67,35.94 H 3.377 L 14.821,5.805 h 6.274 z M 21.938,24.017 17.89,12.834 13.921,24.016 Z M 35.987,5.805 h 10.844 q 3.666,0 5.59,0.574 2.585,0.782 4.43,2.774 1.844,1.995 2.804,4.894 0.964,2.88 0.964,7.112 0,3.722 -0.903,6.413 -1.104,3.288 -3.148,5.325 -1.542,1.542 -4.169,2.404 -1.965,0.639 -5.25,0.639 H 35.987 Z m 5.934,5.098 v 19.961 h 4.43 q 2.487,0 3.587,-0.287 1.444,-0.37 2.385,-1.255 0.964,-0.884 1.565,-2.899 0.601,-2.037 0.601,-5.529 0,-3.496 -0.601,-5.366 -0.601,-1.871 -1.682,-2.917 -1.081,-1.047 -2.744,-1.417 -1.243,-0.287 -4.872,-0.287 z" fill="#ffffff" id="path7" />
			<use xlink:href="#C" fill="none" stroke="#ffffff" stroke-width="0.261" transform="matrix(3.779626,0,0,3.779135,-0.002334,4.19e-4)" id="use7" />
		</g>
	</g>
	<path d="m 101.79999,66.247851 c -0.0107,0.0418 -0.0214,0.306545 -0.0268,0.585202 -0.008,0.493249 -0.0108,0.509965 -0.091,0.69946 -0.0455,0.108682 -0.0831,0.22572 -0.0831,0.264736 0,0.06688 -0.14189,0.387358 -0.2356,0.532266 -0.0509,0.07803 -0.0535,0.07803 -0.083,0.02229 -0.0401,-0.08081 -0.0376,-0.16721 0.0134,-0.323261 0.0615,-0.183925 0.0348,-0.183925 -0.0535,0 -0.083,0.169987 -0.083,0.309324 0,0.404072 0.0643,0.07245 0.10442,0.06689 0.17134,-0.03065 0.0321,-0.04737 0.0777,-0.0836 0.10443,-0.0836 0.091,0 0.1285,-0.08918 0.14724,-0.34277 0.0134,-0.183924 0.0375,-0.287038 0.0991,-0.418009 0.0482,-0.105896 0.0777,-0.21737 0.0777,-0.29261 0,-0.06409 0.005,-0.117042 0.0134,-0.117042 0.005,0 0.0562,0.03344 0.11244,0.07245 0.0777,0.05295 0.12851,0.06967 0.22222,0.06131 0.1178,-0.0056 0.12048,-0.0056 0.1526,0.103109 0.0509,0.181131 0.0455,0.209004 -0.0455,0.209004 -0.19009,0 -0.52741,0.114256 -0.5756,0.197862 -0.0348,0.05852 0.0134,0.05852 0.12582,0.0028 0.0643,-0.03344 0.20081,-0.07525 0.30253,-0.09196 l 0.18742,-0.03344 0.1526,0.103109 c 0.0856,0.05852 0.19276,0.111469 0.24095,0.114256 0.0482,0.0056 0.0937,0.01394 0.10173,0.01672 0.008,0.0028 0.0242,0.0028 0.0348,0 0.0107,-0.0028 0.0161,0.03065 0.0134,0.06967 -0.005,0.0418 0.005,0.08081 0.0241,0.08639 0.0428,0.01672 0.0696,-0.136549 0.0482,-0.270307 l -0.0187,-0.11147 h 0.23828 c 0.12852,0 0.37483,0.01951 0.5435,0.03901 0.16866,0.02229 0.4712,0.04737 0.66931,0.05852 0.27041,0.01394 0.4498,0.03901 0.70948,0.105897 0.28111,0.07245 0.32664,0.08917 0.24095,0.09475 -0.0589,0.0056 -0.20348,0.01951 -0.32127,0.03623 -0.1178,0.01394 -0.39356,0.0418 -0.61578,0.05574 l -0.68271,0.05573 -0.42034,0.03623 -0.14189,0.01115 v -0.128189 c -0.003,-0.06967 -0.0187,-0.16721 -0.0401,-0.211798 -0.0348,-0.08081 -0.0348,-0.07245 -0.0376,0.133761 -0.003,0.209005 -0.005,0.214577 -0.0616,0.203433 -0.20883,-0.04459 -0.26238,-0.04737 -0.26238,-0.0084 0,0.04737 0.0803,0.07524 0.22221,0.07524 h 0.0991 v 0.25637 l -0.0831,-0.08639 c -0.12047,-0.128189 -0.34268,-0.186703 -0.53278,-0.14491 -0.0803,0.01951 -0.21953,0.04459 -0.30788,0.06131 -0.2249,0.03901 -0.36947,0.09196 -0.60239,0.220146 a 14.974792,15.587012 0 0 1 -0.47388,0.2508 c -0.14993,0.07524 -0.31325,0.175559 -0.36411,0.222942 -0.14457,0.130975 -0.16599,0.117042 -0.1526,-0.09754 0.003,-0.09475 0.0268,-0.133762 0.15528,-0.26753 0.17135,-0.175559 0.23828,-0.220148 0.33735,-0.220148 0.0375,0 0.0749,-0.01393 0.0856,-0.03065 0.0134,-0.02229 -0.0161,-0.02508 -0.0991,-0.01115 -0.14725,0.02508 -0.19276,0.05016 -0.35339,0.189496 -0.0697,0.06131 -0.13119,0.105896 -0.13655,0.100321 -0.005,-0.0056 0.0134,-0.100321 0.0401,-0.20621 0.0268,-0.108682 0.0509,-0.22572 0.0509,-0.264736 0,-0.08081 0.0749,-0.11983 0.29449,-0.153271 0.12048,-0.01951 0.22759,-0.06409 0.20616,-0.08639 -0.005,-0.0056 -0.0455,0 -0.0883,0.01394 -0.0428,0.01393 -0.1526,0.03344 -0.24363,0.0418 l -0.16866,0.01672 v -0.172781 c 0,-0.142123 0.0134,-0.19229 0.0724,-0.281467 0.0696,-0.105894 0.0723,-0.105894 0.20614,-0.08917 l 0.24363,0.02787 0.10709,0.01394 -0.10709,-0.05295 c -0.059,-0.03066 -0.14457,-0.05574 -0.19276,-0.05574 -0.0455,-0.0028 -0.091,-0.01393 -0.10173,-0.02787 -0.008,-0.01393 0.0428,-0.08081 0.11244,-0.147697 0.21685,-0.206211 0.28648,-0.281467 0.4605,-0.496043 0.19275,-0.236878 0.27844,-0.300959 0.12851,-0.09475 l -0.24363,0.331626 c -0.0777,0.108682 -0.2008,0.24245 -0.2704,0.300959 -0.15797,0.125403 -0.12316,0.13655 0.0509,0.01672 0.11244,-0.08081 0.39087,-0.398501 0.54616,-0.627014 0.0696,-0.105896 0.10442,-0.300959 0.059,-0.331627 -0.0187,-0.01114 -0.0482,0.0056 -0.0723,0.0418 -0.0723,0.108681 -0.24899,0.306546 -0.56758,0.64095 -0.27576,0.29261 -0.31326,0.320468 -0.4016,0.320468 h -0.0964 l 0.005,0.128189 0.008,0.130976 -0.24096,0.23129 c -0.22489,0.21737 -0.2811,0.309324 -0.22489,0.367849 0.0107,0.01115 0.0214,0.06131 0.0268,0.114257 0.0161,0.195068 0.0777,0.29261 0.23025,0.365055 0.0777,0.03624 0.1285,0.06689 0.10976,0.06689 -0.0187,0.0028 -0.10174,0.07245 -0.18473,0.158843 l -0.15261,0.15327 -0.10976,-0.08081 c -0.0615,-0.04459 -0.192771,-0.133761 -0.297191,-0.20064 -0.18205,-0.114254 -0.334664,-0.24245 -0.334664,-0.278672 0,-0.01115 0.02942,-0.01393 0.06693,-0.0056 0.0375,0.0056 0.0669,0.01951 0.0669,0.03065 0,0.0084 0.0241,0.03344 0.0562,0.05295 0.0509,0.03344 0.0509,0.03066 -0.008,-0.05295 -0.0348,-0.04737 -0.0884,-0.09754 -0.1178,-0.108682 -0.08032,-0.03344 -0.171348,-0.0028 -0.171348,0.05295 0,0.07245 0.203488,0.259165 0.452468,0.418009 0.12315,0.08081 0.251665,0.167211 0.286455,0.195069 l 0.0643,0.05295 -0.104415,0.07245 c -0.0669,0.04737 -0.1178,0.06688 -0.14993,0.05573 -0.0401,-0.01672 -0.0455,-0.0084 -0.0348,0.03901 0.0107,0.03344 0,0.07245 -0.0214,0.09196 -0.0214,0.01672 -0.0375,0.05016 -0.0375,0.07525 0,0.03344 -0.0242,0.03901 -0.12316,0.02229 -0.0696,-0.0084 -0.14189,-0.01672 -0.16599,-0.01672 -0.02413,0 -0.03479,-0.01951 -0.02413,-0.05573 0.01074,-0.04459 0.0056,-0.05016 -0.02942,-0.03065 -0.03214,0.01951 -0.07767,0 -0.168671,-0.06967 -0.14189,-0.108682 -0.388214,-0.23129 -0.52475,-0.264736 -0.08836,-0.01951 -0.09103,-0.01672 -0.07494,0.03901 0.03479,0.119828 0.06957,0.537837 0.05619,0.660459 -0.008,0.06967 -0.0214,0.231291 -0.03214,0.359485 -0.008,0.128188 -0.04016,0.303753 -0.06957,0.387358 -0.02942,0.0836 -0.06428,0.21737 -0.07494,0.295387 l -0.01876,0.142122 -0.01876,-0.111469 c -0.0428,-0.253593 -0.133867,-0.62422 -0.14993,-0.613077 -0.01603,0.0084 0,0.147695 0.06957,0.635379 0.01074,0.07803 0.008,0.130976 -0.008,0.130976 -0.03751,0 -0.125835,-0.105896 -0.222222,-0.270308 -0.08031,-0.142122 -0.117796,-0.172781 -0.14189,-0.125402 -0.008,0.01115 0.0024,0.147697 0.02413,0.306547 0.03214,0.259164 0.0509,0.314896 0.184734,0.582425 0.109764,0.220148 0.147244,0.326039 0.147244,0.412438 0,0.111469 -0.0056,0.117042 -0.139213,0.183924 -0.07767,0.03624 -0.144575,0.0836 -0.152607,0.105895 -0.008,0.03066 0.01603,0.02508 0.08568,-0.01951 0.144568,-0.08639 0.144568,-0.02508 0.0024,0.111469 -0.136544,0.133762 -0.171347,0.153271 -0.171347,0.105896 0,-0.01672 -0.01074,-0.02229 -0.02677,-0.01393 -0.01339,0.0084 -0.02677,0.04737 -0.02677,0.08639 0,0.117042 0.0937,0.08081 0.265056,-0.100321 0.08836,-0.09196 0.168663,-0.19229 0.17671,-0.222942 0.01074,-0.03065 0.02942,-0.05574 0.04553,-0.05574 0.01339,0 0.01876,0.01951 0.01074,0.04459 -0.06428,0.172782 -0.04553,0.2118 0.06693,0.147698 0.0428,-0.02229 0.04817,-0.03623 0.02413,-0.06688 -0.06156,-0.07524 -0.0056,-0.147695 0.149922,-0.195067 l 0.147254,-0.04459 0.20615,0.186702 c 0.112442,0.100321 0.246308,0.203433 0.294498,0.228513 0.04553,0.02508 0.08567,0.05295 0.08567,0.06409 0,0.04737 -0.37749,0.345548 -0.567586,0.443089 -0.190088,0.10311 -0.20882,0.119828 -0.27308,0.26753 -0.0723,0.164416 -0.07767,0.245228 -0.008,0.103109 0.06428,-0.122615 0.206143,-0.248021 0.366781,-0.323261 0.141899,-0.06688 0.535471,-0.387358 0.535471,-0.437518 0,-0.01951 0.29717,0.09475 0.34536,0.130976 0.0428,0.03344 -0.13653,0.133762 -0.412309,0.23129 -0.259694,0.08918 -0.294497,0.108683 -0.18741,0.09475 0.578289,-0.06967 0.706809,-0.183924 0.755009,-0.668807 0.0107,-0.133764 0.005,-0.192291 -0.0376,-0.29261 -0.0615,-0.139336 -0.23024,-0.323262 -0.40962,-0.451455 -0.160643,-0.111469 -0.267731,-0.217369 -0.267731,-0.261958 0,-0.01951 0.02942,-0.05016 0.06428,-0.06688 0.06693,-0.03344 0.262381,0.0028 0.599701,0.108682 0.168671,0.05295 0.208831,0.09475 0.232931,0.248021 0.0161,0.111469 0.0134,0.11983 -0.0455,0.122615 -0.0562,0.0028 -0.0562,0.0056 0.0187,0.03901 0.10709,0.05016 0.14993,0.01115 0.11781,-0.103109 -0.0134,-0.05016 -0.0187,-0.09475 -0.0107,-0.100321 0.005,-0.0056 0.083,0.06409 0.17134,0.158843 0.17937,0.195068 0.29986,0.426375 0.44442,0.863877 0.17672,0.529472 0.29451,0.713396 0.50602,0.783065 0.12851,0.0418 0.2704,0.02508 0.55151,-0.07246 0.16866,-0.05852 0.20615,-0.08081 0.17671,-0.105895 -0.0321,-0.02508 -0.0294,-0.05295 0.0321,-0.189496 0.0562,-0.125402 0.10441,-0.183925 0.21953,-0.264736 0.0803,-0.05852 0.16867,-0.150482 0.19544,-0.203433 0.0696,-0.13655 0.0482,-0.356706 -0.0535,-0.59914 -0.0455,-0.108682 -0.10174,-0.300959 -0.12584,-0.431946 -0.0241,-0.130976 -0.0883,-0.331627 -0.13922,-0.445883 -0.11511,-0.2508 -0.12582,-0.457027 -0.0401,-0.693889 0.0803,-0.222941 0.18204,-0.356707 0.39623,-0.521123 0.11245,-0.08639 0.23293,-0.209004 0.28916,-0.295387 0.16063,-0.248021 0.27843,-0.72454 0.28111,-1.131406 v -0.144895 h 0.21151 c 0.11781,0 0.30252,-0.01115 0.40962,-0.02787 0.1071,-0.01393 0.39893,-0.03901 0.64524,-0.05574 0.46852,-0.03065 0.69876,-0.06131 1.03342,-0.139336 l 0.19544,-0.04459 -0.26237,-0.08918 c -0.39892,-0.133763 -0.58097,-0.169988 -0.94776,-0.186718 -0.18474,-0.01115 -0.50333,-0.03623 -0.70681,-0.06131 -0.20346,-0.02229 -0.4605,-0.03623 -0.56758,-0.03065 -0.38821,0.02787 -0.083,-0.06688 0.34537,-0.105896 0.11513,-0.01115 0.21419,-0.03065 0.22221,-0.0418 0.008,-0.01394 -0.091,-0.02508 -0.22221,-0.02508 -0.2008,0 -0.34269,0.02508 -0.57295,0.103109 -0.0428,0.01393 -0.12583,-0.130975 -0.21151,-0.370627 -0.0482,-0.130976 -0.0615,-0.04737 -0.0134,0.09196 0.10441,0.312118 0.1178,0.370627 0.0803,0.370627 -0.0187,0 -0.083,-0.100323 -0.1419,-0.222942 -0.0856,-0.183925 -0.0991,-0.228513 -0.0696,-0.253592 0.0615,-0.05295 0.0428,-0.108683 -0.0428,-0.142123 -0.0509,-0.01672 -0.10175,-0.06688 -0.1312,-0.130976 -0.0669,-0.136549 -0.14992,-0.209004 -0.20883,-0.186702 -0.0401,0.01672 -0.0375,0.02508 0.0214,0.08081 0.0376,0.03344 0.083,0.0836 0.10173,0.108683 0.0321,0.04459 0.0268,0.05016 -0.0589,0.05016 -0.0857,0 -0.10175,-0.01393 -0.17672,-0.147696 -0.0428,-0.07803 -0.1178,-0.245227 -0.16332,-0.367848 l -0.0937,-0.231293 c -0.003,-0.0056 -0.0161,0.02787 -0.0268,0.06967 z m 0.21151,0.560123 c 0.0643,0.133763 0.0669,0.147696 0.0242,0.161621 -0.0268,0.0084 -0.0696,0.02787 -0.0937,0.0418 -0.0268,0.01393 -0.0589,0.02508 -0.0749,0.02508 -0.0294,0 -0.0375,-0.535044 -0.008,-0.568489 0.0107,-0.01115 0.0321,0.02787 0.0482,0.08639 0.0187,0.05852 0.0643,0.172782 0.10441,0.253593 z m 0.17403,0.298181 0.0535,0.09753 h -0.0856 c -0.0482,-0.0028 -0.11512,-0.02229 -0.1526,-0.04459 -0.0669,-0.0418 -0.0669,-0.0418 0.0321,-0.02787 0.10978,0.01393 0.17135,-0.03344 0.0749,-0.05852 -0.0428,-0.01115 -0.0482,-0.02229 -0.0214,-0.03901 0.0187,-0.01393 0.0375,-0.02508 0.0401,-0.02508 z m 0.21685,-0.04459 c 0.0428,0.0836 0.0321,0.114255 -0.0348,0.114255 -0.0402,0 -0.0777,-0.03065 -0.1071,-0.0836 l -0.0482,-0.0836 h 0.0803 c 0.0535,0 0.091,0.01951 0.10977,0.05295 z m 0.17402,0.365056 0.0937,0.195068 h -0.10441 c -0.10442,0 -0.10442,0 -0.12315,-0.133762 -0.0107,-0.07245 -0.0294,-0.15327 -0.0428,-0.178353 -0.0214,-0.0418 0,-0.06967 0.0615,-0.07524 0.0107,-0.0028 0.0643,0.0836 0.11512,0.192291 z m 0.16866,0.337198 c 0.0187,0.03344 0.0321,0.06131 0.0268,0.06688 -0.005,0.0056 -0.0616,-0.02229 -0.1285,-0.05574 l -0.12048,-0.06688 0.0937,-0.0028 c 0.0669,0 0.10442,0.01672 0.12851,0.05852 z m -2.17402,0.295387 c -0.0187,0.01951 -0.31859,0.06688 -0.33199,0.05295 -0.008,-0.0084 0.0563,-0.08639 0.14458,-0.169988 l 0.15796,-0.150483 0.0187,0.130976 c 0.0107,0.06967 0.016,0.133762 0.0107,0.136549 z m -0.0161,0.125404 c 0,0.03623 -0.0856,0.445883 -0.0964,0.462597 -0.003,0.0056 -0.0401,-0.0084 -0.0856,-0.03344 -0.0856,-0.04737 -0.1419,-0.158843 -0.14725,-0.298181 -0.005,-0.08918 -0.003,-0.09196 0.1419,-0.125402 l 0.16866,-0.03624 c 0.0107,0 0.0187,0.01393 0.0187,0.03065 z m 2.17936,0.164416 c 0.0562,0.01672 0.15259,0.07803 0.21685,0.139336 l 0.11245,0.108682 -0.0242,0.15327 c -0.0376,0.253593 -0.14725,0.571282 -0.24899,0.72454 -0.0535,0.08081 -0.16866,0.197861 -0.25434,0.261958 -0.27308,0.20064 -0.40695,0.406866 -0.4712,0.732906 -0.0455,0.228513 -0.0321,0.339974 0.0749,0.560123 0.0428,0.08918 0.10709,0.295387 0.1419,0.459803 0.0376,0.164417 0.10441,0.381787 0.14725,0.487678 0.13922,0.326039 0.10441,0.479312 -0.14457,0.666031 -0.16332,0.125403 -0.20883,0.195068 -0.29183,0.470963 -0.0187,0.05852 -0.31859,0.150482 -0.49261,0.150482 -0.25168,0 -0.34538,-0.130976 -0.58366,-0.808145 -0.17937,-0.504392 -0.24362,-0.621442 -0.50064,-0.883384 l -0.21152,-0.214576 -0.0134,-0.203434 c -0.008,-0.111469 -0.0348,-0.342769 -0.0643,-0.509963 -0.11512,-0.688317 -0.133871,-0.819304 -0.133871,-0.969784 0,-0.08639 -0.0107,-0.161622 -0.0242,-0.169987 -0.0134,-0.0084 -0.0294,-0.03901 -0.0376,-0.06967 -0.008,-0.03901 0.0187,-0.07803 0.107101,-0.142122 0.14457,-0.108681 0.083,-0.156057 0.64789,0.490455 0.35073,0.401296 0.44444,0.529473 0.589,0.794209 0.25701,0.479312 0.77909,1.262376 0.77909,1.170422 0,-0.01394 -0.14189,-0.259164 -0.31325,-0.543408 -0.17402,-0.284245 -0.38285,-0.638158 -0.46315,-0.785859 -0.14458,-0.264736 -0.32931,-0.490455 -0.85941,-1.056166 l -0.20614,-0.222942 0.0589,-0.06967 c 0.0321,-0.03901 0.0937,-0.100323 0.13655,-0.139337 l 0.0749,-0.06967 -0.0187,0.09475 c -0.0348,0.200639 0.12582,0.295387 0.25432,0.15327 0.0348,-0.0418 0.20347,-0.14491 0.37215,-0.23129 l 0.5194,-0.278674 c 0.16866,-0.09754 0.28379,-0.13655 0.56222,-0.197861 0.41497,-0.09196 0.42836,-0.09196 0.56222,-0.05295 z m -3.77233,0.894544 c 0.18741,0.114256 0.305206,0.200639 0.307883,0.220148 0,0.0084 -0.07494,0.07245 -0.166001,0.139336 -0.08835,0.06688 -0.203481,0.158843 -0.251671,0.200639 l -0.08835,0.07803 0.01603,-0.133763 c 0.01338,-0.125403 -0.02413,-0.473741 -0.06156,-0.579632 -0.01603,-0.03901 -0.008,-0.04459 0.04553,-0.02787 0.03479,0.01115 0.125827,0.05852 0.198119,0.103109 z m 0.610429,0.337198 c 0.10173,0.01951 0.1526,0.04459 0.1526,0.06967 0,0.03901 0.0348,0.03623 0.1419,-0.0084 0.0376,-0.01672 0.0455,-0.0056 0.0455,0.07246 0,0.100322 0.0509,0.462596 0.133871,0.958623 0.0268,0.167211 0.0562,0.378994 0.0643,0.46817 0.0107,0.144909 0.008,0.161622 -0.0321,0.142124 -0.144581,-0.0641 -0.618451,-0.178353 -0.698769,-0.167211 -0.109764,0.01672 -0.190096,0.08918 -0.190096,0.169988 0,0.06409 0.136545,0.211798 0.321274,0.34277 0.15797,0.111469 0.33199,0.303752 0.37483,0.418009 0.0214,0.06131 0.0268,0.144909 0.0161,0.259165 -0.0294,0.253593 -0.0242,0.250799 -0.19275,0.18113 -0.0777,-0.03065 -0.14458,-0.07245 -0.14458,-0.08639 0.002,-0.05852 0.13119,-0.181131 0.17135,-0.164417 0.0535,0.02229 0.0535,-0.01672 0.003,-0.08917 -0.0401,-0.05295 -0.0428,-0.05016 -0.10441,0.02229 -0.0348,0.0418 -0.083,0.103109 -0.10709,0.139337 l -0.0428,0.06409 -0.09906,-0.05573 c -0.05354,-0.03065 -0.187411,-0.142122 -0.297176,-0.248022 l -0.198127,-0.195068 -0.165993,0.04459 c -0.08836,0.02508 -0.184733,0.05574 -0.208827,0.06409 -0.06156,0.02509 -0.06156,-0.03344 -0.008,-0.334404 0.02677,-0.142122 0.03479,-0.278672 0.02413,-0.381787 -0.01074,-0.103109 -0.008,-0.161621 0.01074,-0.161621 0.01339,0 0.03479,-0.0836 0.04553,-0.189498 0.01074,-0.103108 0.04553,-0.261957 0.08032,-0.353912 0.03214,-0.09196 0.06693,-0.250798 0.07767,-0.353913 0.01876,-0.172781 0.02942,-0.19786 0.13119,-0.300959 0.182048,-0.183924 0.457813,-0.387358 0.50064,-0.367848 0.0214,0.0084 0.109773,0.02787 0.195443,0.0418 z m -1.215488,1.49089 c 0.06693,0.03901 0.07767,0.06689 0.09103,0.197862 0.008,0.08639 0.0056,0.211798 -0.0056,0.281466 l -0.01603,0.125403 -0.115126,-0.222942 c -0.09906,-0.189495 -0.190096,-0.490455 -0.192757,-0.62422 0,-0.02229 0.03751,0.01393 0.083,0.07803 0.04553,0.06688 0.115126,0.139337 0.155285,0.164417 z m 3.282359,-2.037077 c -0.31591,0.01951 -0.24363,0.05016 0.14725,0.06409 0.22758,0.0084 0.43641,0.02509 0.46317,0.03901 0.0268,0.01393 0.0455,0.01115 0.0455,-0.0056 0,-0.07246 -0.30787,-0.117042 -0.65593,-0.09754 z m 0.21953,0.178353 c -0.0401,0.03344 -0.17134,0.100322 -0.28915,0.15327 -0.12851,0.05574 -0.24095,0.128189 -0.28112,0.17556 -0.0376,0.04737 -0.10975,0.111469 -0.16063,0.144909 -0.0509,0.03344 -0.0883,0.0641 -0.083,0.07245 0.0161,0.01672 0.20615,-0.09475 0.27577,-0.161622 0.0294,-0.03065 0.1526,-0.09754 0.27308,-0.150483 0.1178,-0.05016 0.27843,-0.139336 0.3534,-0.19229 0.13119,-0.09475 0.13654,-0.100321 0.0643,-0.100321 -0.0428,0 -0.11244,0.02787 -0.15261,0.05852 z m -2.267681,1.529907 c -0.0509,0.01394 -0.147257,0.01672 -0.216864,0.0084 -0.144568,-0.01672 -0.278426,0.0418 -0.323955,0.144909 -0.03214,0.07524 -0.176702,0.189497 -0.29986,0.236879 -0.128504,0.05016 -0.06156,0.05852 0.07767,0.0084 0.083,-0.02787 0.171339,-0.08918 0.243623,-0.169988 0.112449,-0.122615 0.123159,-0.125402 0.310569,-0.144909 0.107097,-0.0084 0.232927,-0.03623 0.275767,-0.06409 0.0884,-0.05016 0.0749,-0.05295 -0.0669,-0.01951 z" id="path4-5" style="stroke-width:0.161493" />
	<rect x="1.1879" y="1.1891" width="182.83" height="82.29" ry="3.0442" fill="none" stroke="url(#b)" stroke-linecap="round" stroke-linejoin="round" stroke-width=".25916" id="rect9" />
	<rect x="1.0583" y="1.1885" width="182.83" height="82.29" ry="3.0442" fill="none" stroke="url(#a)" stroke-linecap="round" stroke-linejoin="round" stroke-width=".25916" id="rect10" />
</svg>